<?xml version="1.0" standalone="no"?>
<!DOCTYPE svg PUBLIC "-//W3C//DTD SVG 20010904//EN"
 "http://www.w3.org/TR/2001/REC-SVG-20010904/DTD/svg10.dtd">
<svg version="1.0" xmlns="http://www.w3.org/2000/svg"
 width="192.000000pt" height="192.000000pt" viewBox="0 0 192.000000 192.000000"
 preserveAspectRatio="xMidYMid meet">
<metadata>
Created by potrace 1.14, written by Peter Selinger 2001-2017
</metadata>
<g transform="translate(0.000000,192.000000) scale(0.100000,-0.100000)"
fill="#000000" stroke="none">
<path d="M445 1905 c-40 -14 -74 -48 -75 -75 0 -8 -9 -57 -21 -107 -23 -102
-19 -97 -119 -117 -165 -33 -188 -52 -188 -154 1 -113 76 -194 189 -205 24 -3
55 -8 69 -11 32 -8 94 -14 141 -15 l37 -1 -20 -62 c-30 -97 -29 -226 1 -323 2
-5 5 -17 8 -25 15 -52 76 -152 123 -200 114 -118 227 -169 391 -177 77 -4 109
-1 162 15 61 18 67 19 68 4 1 -26 5 -61 14 -127 7 -59 9 -68 21 -131 8 -42 57
-100 106 -125 49 -25 124 -27 167 -4 39 19 53 51 77 165 9 47 21 90 26 97 5 7
35 17 66 24 31 7 59 13 62 14 3 1 23 5 45 10 50 10 76 27 96 62 18 31 18 111
1 154 -16 39 -63 90 -97 104 -37 16 -208 46 -271 48 -7 0 -2 26 13 68 30 88
39 198 23 285 -14 72 -59 184 -85 210 -8 9 -15 19 -15 23 0 17 -116 123 -168
153 -31 18 -59 33 -62 33 -3 0 -9 3 -15 6 -32 20 -148 42 -215 42 -56 0 -135
-15 -200 -37 l-69 -24 1 31 c1 29 -6 91 -16 142 -2 11 -6 41 -10 67 -17 119
-150 202 -261 163z"/>
</g>
</svg>
